# xmcd CD database file
#
# Track frame offsets:
#	150
#	14582
#	27789
#	46024
#	61476
#	76300
#	91989
#	109068
#	129419
#	145754
#	162706
#	176915
#
# Disc length: 2418 seconds
#
# Revision: 5
# Processed by: cddbd v1.5.2PL0 Copyright (c) Steve Scherf et al.
# Submitted via: CDex 1.73
#
DISCID=9c09700c
DTITLE=Pat Green - Dancehall Dreamer
DYEAR=1995
DGENRE=Country
TTITLE0=Here We Go
TTITLE1=Down To The River
TTITLE2=I Like Texas
TTITLE3=Dancehall Dreamer
TTITLE4=The Bottle
TTITLE5=Rain In Layfayette
TTITLE6=West Texas Holiday
TTITLE7=Goin' Down Style
TTITLE8=Family Man
TTITLE9=Southbound 35
TTITLE10=One For The Road
TTITLE11=Pat and Jack's Blue
EXTD=YEAR: 1995
EXTT0=
EXTT1=
EXTT2=
EXTT3=
EXTT4=
EXTT5=
EXTT6=
EXTT7=
EXTT8=
EXTT9=
EXTT10=
EXTT11=
PLAYORDER=
